{"title":"Never Let Me Go 2010 PPVRip V2 XViD IFLIX","uid":6014409,"size":1281155279,"categoryP":"video","categoryS":"movies","magnet":"?xt=urn:btih:98926316655f600f1bcba29f896eb7d28b653653&amp;dn=Never+Let+Me+Go+2010+PPVRip+V2+XViD+IFLIX&amp;tr=udp%3A%2F%2Ftracker.openbittorrent.com%3A80&amp;tr=udp%3A%2F%2Fopen.demonii.com%3A1337&amp;tr=udp%3A%2F%2Ftracker.coppersurfer.tk%3A6969&amp;tr=udp%3A%2F%2Fexodus.desync.com%3A6969","seeders":0,"leechers":0,"uploader":"IwannaFan2","files":7,"time":1291575800,"description":"Filename:\nNever Let Me Go 2010 PPVRip V2 XViD IFLIX\n &lt;a href=&quot;\nhttp://www.imdb.com/title/tt1334260/&quot; rel=&quot;nofollow&quot; target=&quot;_NEW&quot;&gt;\nhttp://www.imdb.com/title/tt1334260/&lt;/a&gt;\n\nVideo\nID                               : 0\nFormat                           : MPEG-4 Visual\nFormat profile                   : Simple@L3\nFormat settings, BVOP            : Yes\nFormat settings, QPel            : No\nFormat settings, GMC             : No warppoints\nFormat settings, Matrix          : Default (H.263)\nCodec ID                         : XVID\nCodec ID/Hint                    : XviD\nDuration                         : 1h 43mn\nBit rate                         : 1 499 Kbps\nWidth                            : 720 pixels\nHeight                           : 480 pixels\nDisplay aspect ratio             : 1.500\nFrame rate                       : 29.970 fps\nStandard                         : NTSC\nResolution                       : 24 bits\nScan type                        : Progressive\nBits/(Pixel*Frame)               : 0.145\nStream size                      : 1.09 GiB (91%)\n\nAudio\nID                               : 1\nFormat                           : MPEG Audio\nFormat version                   : Version 1\nFormat profile                   : Layer 3\nFormat_Settings_Mode             : Joint stereo / MS Stereo\nCodec ID                         : 55\nCodec ID/Hint                    : MP3\nDuration                         : 1h 43mn\nBit rate mode                    : Constant\nBit rate                         : 128 Kbps\nChannel(s)                       : 2 channels\nSampling rate                    : 44.1 KHz\nResolution                       : 16 bits\nStream size                      : 94.9 MiB (8%)\nAlignment                        : Aligned on interleaves\nInterleave, duration             : 26 ms (0.78 video frame)\nWriting library                  : LAME3.97\n\nRelease notes...\n\nAnother quality release from IFLIX\nMore to come very soon!\n\nVideo source: Ours\nAudio source: Ours\n\nBetter audio quality for V2\nSample also included\n\nGreetings to all other groups out there. You all do awesome work and we greatly appreciate it.\nIFLIX :-)\n\n","torrent":{"xt":"urn:btih:98926316655f600f1bcba29f896eb7d28b653653","amp;dn":"Never+Let+Me+Go+2010+PPVRip+V2+XViD+IFLIX","amp;tr":["udp%3A%2F%2Ftracker.openbittorrent.com%3A80","udp%3A%2F%2Fopen.demonii.com%3A1337","udp%3A%2F%2Ftracker.coppersurfer.tk%3A6969","udp%3A%2F%2Fexodus.desync.com%3A6969"],"infoHash":"98926316655f600f1bcba29f896eb7d28b653653","infoHashBuffer":{"type":"Buffer","data":[152,146,99,22,101,95,96,15,27,203,162,159,137,110,183,210,139,101,54,83]},"announce":[],"urlList":[]}}